<svg xmlns="http://www.w3.org/2000/svg" xmlns:xlink="http://www.w3.org/1999/xlink" xmlns:lucid="lucid" width="1362.5" height="1442"><g transform="translate(2321.5 -639)" lucid:page-tab-id="0_0"><path d="M-2500 500h2000v2000h-2000z" fill="#fff"/><path d="M-2297.25 737.42v-.17A17.25 17.25 0 0 1-2280 720a17.25 17.25 0 0 1 17.25 17.25A17.25 17.25 0 0 1-2280 754.5a17.25 17.25 0 0 1-17.25-17.25v-.17" stroke="#000" stroke-width="2" fill="#fff"/><path d="M-2320 728a8 8 0 0 1 8-8h64a8 8 0 0 1 8 8v122a8 8 0 0 1-8 8h-64a8 8 0 0 1-8-8z" fill="none"/><path d="M-2280 754.5v48.3l40 55.2m-40-55.2l-40 55.2m0-86.25h80" stroke="#000" stroke-width="2" fill="none"/><use xlink:href="#a" transform="matrix(1,0,0,1,-2400,858) translate(97.0078125 17.5478515625)"/><path d="M-2080 648a8 8 0 0 1 8-8h144a8 8 0 0 1 8 8v64a8 8 0 0 1-8 8h-144a8 8 0 0 1-8-8z" stroke="#000" stroke-width="2" fill="#fff"/><use xlink:href="#b" transform="matrix(1,0,0,1,-2080,640) translate(38.239374999999995 32.4375)"/><use xlink:href="#c" transform="matrix(1,0,0,1,-2080,640) translate(80.00500000000001 58.572656249999994)"/><path d="M-1760 648a8 8 0 0 1 8-8h144a8 8 0 0 1 8 8v64a8 8 0 0 1-8 8h-144a8 8 0 0 1-8-8z" stroke="#000" stroke-width="2" fill="#fff"/><use xlink:href="#d" transform="matrix(1,0,0,1,-1760,640) translate(44.677363281249995 47.4375)"/><path d="M-1460 648a8 8 0 0 1 8-8h184a8 8 0 0 1 8 8v64a8 8 0 0 1-8 8h-184a8 8 0 0 1-8-8z" stroke="#000" stroke-width="2" fill="#fff"/><use xlink:href="#e" transform="matrix(1,0,0,1,-1460,640) translate(24.876093750000003 47.4375)"/><path d="M-2020 728a8 8 0 0 1 8-8h24a8 8 0 0 1 8 8v1344a8 8 0 0 1-8 8h-24a8 8 0 0 1-8-8zM-1700 728a8 8 0 0 1 8-8h24a8 8 0 0 1 8 8v1344a8 8 0 0 1-8 8h-24a8 8 0 0 1-8-8zM-1380 728a8 8 0 0 1 8-8h24a8 8 0 0 1 8 8v1344a8 8 0 0 1-8 8h-24a8 8 0 0 1-8-8z" stroke="#000" stroke-width="2" fill="#fff"/><path d="M-2278.5 800h257M-2278.5 800h-3.5" stroke="#3a414a" fill="none"/><path d="M-2021 800.48h-.5v-.96h.5z" stroke="#3a414a" stroke-width=".05" fill="#3a414a"/><use xlink:href="#f" transform="matrix(1,0,0,1,-2223.3579092313166,774.2206103277098) translate(0.0049999999999954525 17.4375)"/><use xlink:href="#g" transform="matrix(1,0,0,1,-2223.3579092313166,774.2206103277098) translate(49.645624999999995 17.4375)"/><use xlink:href="#h" transform="matrix(1,0,0,1,-2223.3579092313166,774.2206103277098) translate(65.50109375 17.4375)"/><path d="M-1978.5 881.04h261.12" stroke="#3a414a" fill="none"/><path d="M-1978.5 881.5h-.5v-.94h.5z" stroke="#3a414a" stroke-width=".05" fill="#3a414a"/><path d="M-1702.62 881.04l-14.27 4.63.02-9.27z" stroke="#3a414a" fill="#3a414a"/><use xlink:href="#i" transform="matrix(1,0,0,1,-1945.3149845308515,855.2572745006637) translate(0.0049999999999954525 17.4375)"/><use xlink:href="#j" transform="matrix(1,0,0,1,-1945.3149845308515,855.2572745006637) translate(43.528437499999995 17.4375)"/><path d="M-1701.5 959.2h-261.12" stroke="#3a414a" fill="none"/><path d="M-1701 959.67h-.5v-.95h.5z" stroke="#3a414a" stroke-width=".05" fill="#3a414a"/><path d="M-1977.38 959.2l14.26-4.64v9.27z" stroke="#3a414a" fill="#3a414a"/><use xlink:href="#k" transform="matrix(1,0,0,1,-1875.3276839069822,933.4186192961874) translate(0.005000000000002558 17.4375)"/><path d="M-1978.5 1037.36h581.12" stroke="#3a414a" fill="none"/><path d="M-1978.5 1037.84h-.5v-.95l.5-.02z" stroke="#3a414a" stroke-width=".05" fill="#3a414a"/><path d="M-1382.62 1037.36l-14.26 4.63v-9.28z" stroke="#3a414a" fill="#3a414a"/><use xlink:href="#l" transform="matrix(1,0,0,1,-1946.1698432202477,1011.580418426968) translate(0.0049999999999954525 17.4375)"/><use xlink:href="#m" transform="matrix(1,0,0,1,-1946.1698432202477,1011.580418426968) translate(40.601679687499995 17.4375)"/><path d="M-1381.5 1120h-581.12" stroke="#3a414a" fill="none"/><path d="M-1381 1120.47h-.5v-.94h.5z" stroke="#3a414a" stroke-width=".05" fill="#3a414a"/><path d="M-1977.38 1120l14.26-4.63v9.27z" stroke="#3a414a" fill="#3a414a"/><use xlink:href="#n" transform="matrix(1,0,0,1,-1562.4608647412913,1094.2205146323886) translate(0.005000000000002558 17.4375)"/><path d="M-1978.5 1199.8h261.12" stroke="#3a414a" fill="none"/><path d="M-1978.5 1200.26h-.5v-.95h.5z" stroke="#3a414a" stroke-width=".05" fill="#3a414a"/><path d="M-1702.62 1199.8l-14.27 4.62.02-9.27z" stroke="#3a414a" fill="#3a414a"/><use xlink:href="#o" transform="matrix(1,0,0,1,-1912.997578478719,1174.0091958997987) translate(0.0049999999999954525 17.4375)"/><path d="M-1701.5 1279.17h-261.12" stroke="#3a414a" fill="none"/><path d="M-1701 1279.65h-.5v-.95h.5z" stroke="#3a414a" stroke-width=".05" fill="#3a414a"/><path d="M-1977.38 1279.17l14.27-4.63-.02 9.27z" stroke="#3a414a" fill="#3a414a"/><use xlink:href="#p" transform="matrix(1,0,0,1,-1887.1489366149754,1253.3919378089945) translate(0.005000000000002558 17.4375)"/><path d="M-1978.5 1443h261.12" stroke="#3a414a" fill="none"/><path d="M-1978.5 1443.47h-.5v-.94h.5z" stroke="#3a414a" stroke-width=".05" fill="#3a414a"/><path d="M-1702.62 1443l-14.27 4.63.02-9.27z" stroke="#3a414a" fill="#3a414a"/><use xlink:href="#q" transform="matrix(1,0,0,1,-1919.1279253307284,1417.2206691655804) translate(0.0049999999999954525 17.4375)"/><path d="M-1701.5 1599.73h-261.12" stroke="#3a414a" fill="none"/><path d="M-1701 1600.2h-.5v-.95h.5z" stroke="#3a414a" stroke-width=".05" fill="#3a414a"/><path d="M-1977.38 1599.73l14.27-4.64-.02 9.26z" stroke="#3a414a" fill="#3a414a"/><use xlink:href="#p" transform="matrix(1,0,0,1,-1887.148905566599,1573.949340546589) translate(0.005000000000002558 17.4375)"/><path d="M-2021.5 1357.15H-2308a12 12 0 0 1-12-12V816.5a12 12 0 0 1 12-12h11.62" stroke="#3a414a" fill="none"/><path d="M-2021 1357.63h-.5v-.95h.5z" stroke="#3a414a" stroke-width=".05" fill="#3a414a"/><path d="M-2281.62 804.5l-14.26 4.64v-9.27z" stroke="#3a414a" fill="#3a414a"/><use xlink:href="#r" transform="matrix(1,0,0,1,-2188.8956339590354,1331.3754214244382) translate(0.004999999999999005 17.4375)"/><path d="M-2021.5 1520H-2309a12 12 0 0 1-12-12V812a12 12 0 0 1 12-12h11.62" stroke="#3a414a" fill="none"/><path d="M-2021 1520.47h-.5v-.94h.5z" stroke="#3a414a" stroke-width=".05" fill="#3a414a"/><path d="M-2282.62 800l-14.26 4.63v-9.26z" stroke="#3a414a" fill="#3a414a"/><use xlink:href="#s" transform="matrix(1,0,0,1,-2186.844757732253,1494.220808061958) translate(0.004999999999999005 17.4375)"/><path d="M-1978.5 1682h901.1" stroke="#3a414a" fill="none"/><path d="M-1978.5 1682.47h-.5v-.94h.5z" stroke="#3a414a" stroke-width=".05" fill="#3a414a"/><path d="M-1062.62 1682l-14.27 4.63.02-9.27z" stroke="#3a414a" fill="#3a414a"/><use xlink:href="#l" transform="matrix(1,0,0,1,-1965.87744140625,1656.2207036458349) translate(0.0049999999999954525 17.4375)"/><use xlink:href="#t" transform="matrix(1,0,0,1,-1965.87744140625,1656.2207036458349) translate(40.601679687499995 17.4375)"/><use xlink:href="#u" transform="matrix(1,0,0,1,-1965.87744140625,1656.2207036458349) translate(131.999140625 17.4375)"/><path d="M-1061.5 1758.67h-901.1" stroke="#3a414a" fill="none"/><path d="M-1061 1759.14h-.5v-.95h.5z" stroke="#3a414a" stroke-width=".05" fill="#3a414a"/><path d="M-1977.38 1758.67l14.27-4.64-.02 9.27z" stroke="#3a414a" fill="#3a414a"/><use xlink:href="#v" transform="matrix(1,0,0,1,-1295.5494777582744,1732.887369568445) translate(0.004999999999999005 17.4375)"/><path d="M-1120 648a8 8 0 0 1 8-8h144a8 8 0 0 1 8 8v64a8 8 0 0 1-8 8h-144a8 8 0 0 1-8-8z" stroke="#000" stroke-width="2" fill="#fff"/><use xlink:href="#w" transform="matrix(1,0,0,1,-1120,640) translate(50.460566406249995 47.4375)"/><path d="M-1060 728a8 8 0 0 1 8-8h24a8 8 0 0 1 8 8v1344a8 8 0 0 1-8 8h-24a8 8 0 0 1-8-8z" stroke="#000" stroke-width="2" fill="#fff"/><path d="M-1978.5 1836h581.1" stroke="#3a414a" fill="none"/><path d="M-1978.5 1836.47h-.5v-.94h.5z" stroke="#3a414a" stroke-width=".05" fill="#3a414a"/><path d="M-1382.62 1836l-14.27 4.63.02-9.27z" stroke="#3a414a" fill="#3a414a"/><g><use xlink:href="#x" transform="matrix(1,0,0,1,-1922.98876953125,1810.2207037946428) translate(0.0049999999999954525 17.4375)"/></g><path d="M-1381.5 1922h-581.1" stroke="#3a414a" fill="none"/><path d="M-1381 1922.47h-.5v-.94h.5z" stroke="#3a414a" stroke-width=".05" fill="#3a414a"/><path d="M-1977.38 1922l14.27-4.63-.02 9.27z" stroke="#3a414a" fill="#3a414a"/><g><use xlink:href="#y" transform="matrix(1,0,0,1,-1738.8866799107145,1925.9999997767777) translate(0.005000000000002558 17.4375)"/><use xlink:href="#z" transform="matrix(1,0,0,1,-1738.8866799107145,1925.9999997767777) translate(64.1563671875 17.4375)"/></g><defs><path fill="#3a414a" d="M52 0l541-1490h220L1361 0h-200l-149-416H398L254 0H52zm404-582h497c-103-290-145-390-251-756-108 377-145 460-246 756" id="A"/><path fill="#3a414a" d="M613 24c-304 0-509-231-509-576 0-350 205-580 509-580 216 0 392 114 453 309l-173 49c-33-115-133-197-280-197-223 0-326 196-326 419 0 220 103 415 326 415 150 0 252-85 285-206l172 49C1010-95 832 24 613 24" id="B"/><path fill="#3a414a" d="M598-1118v154H368v674c0 100 37 144 132 144 23 0 62-6 92-12L629-6c-37 13-88 20-134 20-193 0-307-107-307-290v-688H20v-154h168v-266h180v266h230" id="C"/><path fill="#3a414a" d="M613 24c-304 0-509-231-509-576 0-350 205-580 509-580 305 0 511 230 511 580 0 345-206 576-511 576zm0-161c226 0 329-195 329-415 0-222-103-419-329-419-223 0-326 196-326 419 0 220 103 415 326 415" id="D"/><path fill="#3a414a" d="M158 0v-1118h174v172h12c41-113 157-188 290-188 26 0 70 2 91 3v181c-11-2-60-10-108-10-161 0-279 109-279 260V0H158" id="E"/><g id="a"><use transform="matrix(0.0087890625,0,0,0.0087890625,0,0)" xlink:href="#A"/><use transform="matrix(0.0087890625,0,0,0.0087890625,12.4189453125,0)" xlink:href="#B"/><use transform="matrix(0.0087890625,0,0,0.0087890625,22.7021484375,0)" xlink:href="#C"/><use transform="matrix(0.0087890625,0,0,0.0087890625,28.4150390625,0)" xlink:href="#D"/><use transform="matrix(0.0087890625,0,0,0.0087890625,39.2080078125,0)" xlink:href="#E"/></g><path fill="#3a414a" d="M158 418v-1536h174v179h20c37-59 106-193 324-193 279 0 474 222 474 576 0 356-194 580-473 580-213 0-288-135-325-197h-14v591H158zm492-555c209 0 317-186 317-421 0-232-105-413-317-413-206 0-314 166-314 413 0 249 111 421 314 421" id="F"/><path fill="#3a414a" d="M338-1490V0H158v-1490h180" id="G"/><path fill="#3a414a" d="M158 0v-1118h180V0H158zm91-1301c-68 0-125-53-125-119s57-119 125-119c69 0 126 53 126 119s-57 119-126 119" id="H"/><path fill="#3a414a" d="M471 26C259 26 90-98 90-318c0-256 228-303 435-329 202-27 287-16 287-108 0-139-79-219-234-219-161 0-248 86-283 164l-173-57c86-203 278-265 451-265 150 0 419 46 419 395V0H815v-152h-12C765-73 660 26 471 26zm31-159c199 0 310-134 310-271v-155c-30 35-226 55-295 64-131 17-246 59-246 186 0 116 97 176 231 176" id="I"/><path fill="#3a414a" d="M481 0L54-1118h197c107 314 236 620 325 951 87-331 217-637 324-951h197L670 0H481" id="J"/><g id="b"><use transform="matrix(0.0087890625,0,0,0.0087890625,0,0)" xlink:href="#A"/><use transform="matrix(0.0087890625,0,0,0.0087890625,12.4189453125,0)" xlink:href="#F"/><use transform="matrix(0.0087890625,0,0,0.0087890625,23.4404296875,0)" xlink:href="#G"/><use transform="matrix(0.0087890625,0,0,0.0087890625,27.7998046875,0)" xlink:href="#H"/><use transform="matrix(0.0087890625,0,0,0.0087890625,32.1591796875,0)" xlink:href="#B"/><use transform="matrix(0.0087890625,0,0,0.0087890625,42.6181640625,0)" xlink:href="#I"/><use transform="matrix(0.0087890625,0,0,0.0087890625,52.7255859375,0)" xlink:href="#C"/><use transform="matrix(0.0087890625,0,0,0.0087890625,58.6142578125,0)" xlink:href="#H"/><use transform="matrix(0.0087890625,0,0,0.0087890625,62.9736328125,0)" xlink:href="#J"/><use transform="matrix(0.0087890625,0,0,0.0087890625,72.73828125,0)" xlink:href="#D"/><path fill="#3a414a" d="M-.9 3.67h85.33V4.9H-.9z"/></g><path fill="#3a414a" d="M-.9 3.67H.9V4.9H-.9z" id="c"/><path fill="#3a414a" d="M657 26c-323 0-524-166-541-416h195c15 169 171 246 346 246 202 0 356-106 356-265 5-203-294-238-475-293-239-73-380-191-380-389 0-252 224-419 512-419 294 0 499 171 508 396H992c-17-145-151-228-328-228-193 0-321 102-321 242 0 156 175 211 284 241l149 41c160 44 422 134 422 412 0 244-197 432-541 432" id="K"/><path fill="#3a414a" d="M338-670V0H158v-1118h173l1 207c72-158 192-221 342-221 226 0 378 139 378 422V0H872v-695c0-172-96-275-252-275-161 0-282 109-282 300" id="L"/><path fill="#3a414a" d="M628 24c-324 0-524-230-524-574 0-343 198-582 503-582 237 0 487 146 487 559v75H286c9 234 145 362 343 362 132 0 231-58 273-172l174 48C1024-91 857 24 628 24zM287-650h624c-17-190-120-322-304-322-192 0-309 151-320 322" id="M"/><g id="d"><use transform="matrix(0.0087890625,0,0,0.0087890625,0,0)" xlink:href="#K"/><use transform="matrix(0.0087890625,0,0,0.0087890625,11.548828125,0)" xlink:href="#B"/><use transform="matrix(0.0087890625,0,0,0.0087890625,22.0078125,0)" xlink:href="#I"/><use transform="matrix(0.0087890625,0,0,0.0087890625,32.115234375,0)" xlink:href="#L"/><use transform="matrix(0.0087890625,0,0,0.0087890625,42.75,0)" xlink:href="#L"/><use transform="matrix(0.0087890625,0,0,0.0087890625,53.384765625,0)" xlink:href="#M"/><use transform="matrix(0.0087890625,0,0,0.0087890625,63.87890625,0)" xlink:href="#E"/><path fill="#3a414a" d="M-.9 3.67h72.46V4.9H-.9z"/></g><path fill="#3a414a" d="M180 0v-1490h510c348 0 508 209 508 474 0 266-160 477-507 477H370V0H180zm190-706h312c236 0 327-133 327-310 0-176-91-307-329-307H370v617" id="N"/><path fill="#3a414a" d="M577 24c-279 0-473-224-473-580 0-354 195-576 474-576 218 0 287 134 324 193h14v-551h180V0H922v-173h-20C865-111 790 24 577 24zm27-161c203 0 314-172 314-421 0-247-108-413-314-413-212 0-317 181-317 413 0 235 108 421 317 421" id="O"/><path fill="#3a414a" d="M180 0v-1490h510c348 0 508 194 508 460 0 198-88 351-276 417L1256 0h-220L726-579c-117 2-238 0-356 1V0H180zm190-747h312c235 0 327-108 327-283 0-177-92-293-329-293H370v576" id="P"/><path fill="#3a414a" d="M538 24C308 24 148-78 108-271l171-41c32 123 123 178 257 178 156 0 256-77 256-169 0-77-54-128-164-154l-186-44c-203-48-300-148-300-305 0-192 176-326 414-326 230 0 351 112 402 269l-163 42c-31-80-94-158-238-158-133 0-233 69-233 162 0 83 57 129 188 160l169 40c203 48 298 149 298 302 0 196-179 339-441 339" id="Q"/><path fill="#3a414a" d="M140 405l46-156c120 36 205 19 263-150l32-93L54-1118h197c107 313 237 620 324 950 87-331 219-637 326-950h196L606 167c-68 178-176 259-334 259-64 0-113-12-132-21" id="R"/><g id="e"><use transform="matrix(0.0087890625,0,0,0.0087890625,0,0)" xlink:href="#N"/><use transform="matrix(0.0087890625,0,0,0.0087890625,11.3994140625,0)" xlink:href="#M"/><use transform="matrix(0.0087890625,0,0,0.0087890625,21.8935546875,0)" xlink:href="#O"/><use transform="matrix(0.0087890625,0,0,0.0087890625,32.9150390625,0)" xlink:href="#H"/><use transform="matrix(0.0087890625,0,0,0.0087890625,37.2744140625,0)" xlink:href="#O"/><use transform="matrix(0.0087890625,0,0,0.0087890625,48.2958984375,0)" xlink:href="#D"/><use transform="matrix(0.0087890625,0,0,0.0087890625,59.0888671875,0)" xlink:href="#P"/><use transform="matrix(0.0087890625,0,0,0.0087890625,70.4091796875,0)" xlink:href="#M"/><use transform="matrix(0.0087890625,0,0,0.0087890625,80.9033203125,0)" xlink:href="#F"/><use transform="matrix(0.0087890625,0,0,0.0087890625,91.9248046875,0)" xlink:href="#D"/><use transform="matrix(0.0087890625,0,0,0.0087890625,102.7177734375,0)" xlink:href="#Q"/><use transform="matrix(0.0087890625,0,0,0.0087890625,112.21875,0)" xlink:href="#H"/><use transform="matrix(0.0087890625,0,0,0.0087890625,116.578125,0)" xlink:href="#C"/><use transform="matrix(0.0087890625,0,0,0.0087890625,122.291015625,0)" xlink:href="#D"/><use transform="matrix(0.0087890625,0,0,0.0087890625,133.083984375,0)" xlink:href="#E"/><use transform="matrix(0.0087890625,0,0,0.0087890625,140.1416015625,0)" xlink:href="#R"/><path fill="#3a414a" d="M-.9 3.67h152.06V4.9H-.9z"/></g><path fill="#3a414a" d="M370-1490V0H180v-1490h190" id="S"/><g id="f"><use transform="matrix(0.0087890625,0,0,0.0087890625,0,0)" xlink:href="#S"/><use transform="matrix(0.0087890625,0,0,0.0087890625,4.833984375,0)" xlink:href="#L"/><use transform="matrix(0.0087890625,0,0,0.0087890625,15.46875,0)" xlink:href="#H"/><use transform="matrix(0.0087890625,0,0,0.0087890625,19.828125,0)" xlink:href="#B"/><use transform="matrix(0.0087890625,0,0,0.0087890625,30.111328125,0)" xlink:href="#H"/><use transform="matrix(0.0087890625,0,0,0.0087890625,34.470703125,0)" xlink:href="#I"/></g><use transform="matrix(0.0087890625,0,0,0.0087890625,0,0)" xlink:href="#D" id="g"/><g id="h"><use transform="matrix(0.0087890625,0,0,0.0087890625,0,0)" xlink:href="#I"/><use transform="matrix(0.0087890625,0,0,0.0087890625,10.107421875,0)" xlink:href="#F"/><use transform="matrix(0.0087890625,0,0,0.0087890625,21.12890625,0)" xlink:href="#G"/><use transform="matrix(0.0087890625,0,0,0.0087890625,25.48828125,0)" xlink:href="#H"/><use transform="matrix(0.0087890625,0,0,0.0087890625,29.84765625,0)" xlink:href="#B"/><use transform="matrix(0.0087890625,0,0,0.0087890625,40.306640625,0)" xlink:href="#I"/><use transform="matrix(0.0087890625,0,0,0.0087890625,50.4140625,0)" xlink:href="#C"/><use transform="matrix(0.0087890625,0,0,0.0087890625,56.302734375,0)" xlink:href="#H"/><use transform="matrix(0.0087890625,0,0,0.0087890625,60.662109375,0)" xlink:href="#J"/><use transform="matrix(0.0087890625,0,0,0.0087890625,70.4267578125,0)" xlink:href="#D"/></g><path fill="#3a414a" d="M180 0v-1490h224l606 953c40 63 108 177 176 312-27-437-7-821-13-1265h190V0h-226C860-448 622-778 356-1262c27 476 11 792 15 1262H180" id="T"/><path fill="#3a414a" d="M409 0L70-1118h191c89 329 165 560 243 925 75-353 154-601 240-925h192c85 325 161 564 235 922 77-354 157-598 244-922h191L1267 0h-179c-86-307-176-590-250-913C763-588 675-308 588 0H409" id="U"/><g id="i"><use transform="matrix(0.0087890625,0,0,0.0087890625,0,0)" xlink:href="#T"/><use transform="matrix(0.0087890625,0,0,0.0087890625,13.5615234375,0)" xlink:href="#M"/><use transform="matrix(0.0087890625,0,0,0.0087890625,23.73046875,0)" xlink:href="#U"/></g><path fill="#3a414a" d="M218-607c0-325 108-727 258-974h175c-155 315-250 682-250 974 0 265 78 531 250 886H476C306-10 218-315 218-607" id="V"/><path fill="#3a414a" d="M158 0v-1118h175l1 205c55-151 181-225 313-225 147 0 245 90 285 228 53-141 190-228 352-228 194 0 352 125 352 384V0h-181v-749c0-161-105-225-225-225-151 0-243 103-243 244V0H807v-767c0-124-93-207-219-207-131 0-250 92-250 270V0H158" id="W"/><path fill="#3a414a" d="M295 13c-75 0-135-60-135-135s60-135 135-135 135 60 135 135S370 13 295 13" id="X"/><path fill="#3a414a" d="M96 279C273-86 346-350 346-607c0-292-95-659-250-974h175c150 246 258 650 258 974 0 297-91 602-258 886H96" id="Y"/><g id="j"><use transform="matrix(0.0087890625,0,0,0.0087890625,0,0)" xlink:href="#K"/><use transform="matrix(0.0087890625,0,0,0.0087890625,11.548828125,0)" xlink:href="#B"/><use transform="matrix(0.0087890625,0,0,0.0087890625,22.0078125,0)" xlink:href="#I"/><use transform="matrix(0.0087890625,0,0,0.0087890625,32.115234375,0)" xlink:href="#L"/><use transform="matrix(0.0087890625,0,0,0.0087890625,42.75,0)" xlink:href="#L"/><use transform="matrix(0.0087890625,0,0,0.0087890625,53.384765625,0)" xlink:href="#M"/><use transform="matrix(0.0087890625,0,0,0.0087890625,63.87890625,0)" xlink:href="#E"/><use transform="matrix(0.0087890625,0,0,0.0087890625,70.6552734375,0)" xlink:href="#V"/><use transform="matrix(0.0087890625,0,0,0.0087890625,77.220703125,0)" xlink:href="#K"/><use transform="matrix(0.0087890625,0,0,0.0087890625,88.76953125,0)" xlink:href="#R"/><use transform="matrix(0.0087890625,0,0,0.0087890625,98.8857421875,0)" xlink:href="#Q"/><use transform="matrix(0.0087890625,0,0,0.0087890625,108.38671875,0)" xlink:href="#C"/><use transform="matrix(0.0087890625,0,0,0.0087890625,114.099609375,0)" xlink:href="#M"/><use transform="matrix(0.0087890625,0,0,0.0087890625,124.59375,0)" xlink:href="#W"/><use transform="matrix(0.0087890625,0,0,0.0087890625,140.361328125,0)" xlink:href="#X"/><use transform="matrix(0.0087890625,0,0,0.0087890625,145.546875,0)" xlink:href="#H"/><use transform="matrix(0.0087890625,0,0,0.0087890625,149.90625,0)" xlink:href="#L"/><use transform="matrix(0.0087890625,0,0,0.0087890625,160.541015625,0)" xlink:href="#Y"/></g><g id="k"><use transform="matrix(0.0087890625,0,0,0.0087890625,0,0)" xlink:href="#K"/><use transform="matrix(0.0087890625,0,0,0.0087890625,11.548828125,0)" xlink:href="#B"/><use transform="matrix(0.0087890625,0,0,0.0087890625,22.0078125,0)" xlink:href="#I"/><use transform="matrix(0.0087890625,0,0,0.0087890625,32.115234375,0)" xlink:href="#L"/><use transform="matrix(0.0087890625,0,0,0.0087890625,42.75,0)" xlink:href="#L"/><use transform="matrix(0.0087890625,0,0,0.0087890625,53.384765625,0)" xlink:href="#M"/><use transform="matrix(0.0087890625,0,0,0.0087890625,63.87890625,0)" xlink:href="#E"/></g><g id="l"><use transform="matrix(0.0087890625,0,0,0.0087890625,0,0)" xlink:href="#L"/><use transform="matrix(0.0087890625,0,0,0.0087890625,10.634765625,0)" xlink:href="#M"/><use transform="matrix(0.0087890625,0,0,0.0087890625,20.8037109375,0)" xlink:href="#U"/></g><g id="m"><use transform="matrix(0.0087890625,0,0,0.0087890625,0,0)" xlink:href="#N"/><use transform="matrix(0.0087890625,0,0,0.0087890625,11.3994140625,0)" xlink:href="#M"/><use transform="matrix(0.0087890625,0,0,0.0087890625,21.8935546875,0)" xlink:href="#O"/><use transform="matrix(0.0087890625,0,0,0.0087890625,32.9150390625,0)" xlink:href="#H"/><use transform="matrix(0.0087890625,0,0,0.0087890625,37.2744140625,0)" xlink:href="#O"/><use transform="matrix(0.0087890625,0,0,0.0087890625,48.2958984375,0)" xlink:href="#D"/><use transform="matrix(0.0087890625,0,0,0.0087890625,59.0888671875,0)" xlink:href="#P"/><use transform="matrix(0.0087890625,0,0,0.0087890625,70.4091796875,0)" xlink:href="#M"/><use transform="matrix(0.0087890625,0,0,0.0087890625,80.9033203125,0)" xlink:href="#F"/><use transform="matrix(0.0087890625,0,0,0.0087890625,91.9248046875,0)" xlink:href="#D"/><use transform="matrix(0.0087890625,0,0,0.0087890625,102.7177734375,0)" xlink:href="#Q"/><use transform="matrix(0.0087890625,0,0,0.0087890625,112.21875,0)" xlink:href="#H"/><use transform="matrix(0.0087890625,0,0,0.0087890625,116.578125,0)" xlink:href="#C"/><use transform="matrix(0.0087890625,0,0,0.0087890625,122.291015625,0)" xlink:href="#D"/><use transform="matrix(0.0087890625,0,0,0.0087890625,133.083984375,0)" xlink:href="#E"/><use transform="matrix(0.0087890625,0,0,0.0087890625,140.1416015625,0)" xlink:href="#R"/><use transform="matrix(0.0087890625,0,0,0.0087890625,150.2578125,0)" xlink:href="#V"/><use transform="matrix(0.0087890625,0,0,0.0087890625,156.8232421875,0)" xlink:href="#Y"/></g><g id="n"><use transform="matrix(0.0087890625,0,0,0.0087890625,0,0)" xlink:href="#P"/><use transform="matrix(0.0087890625,0,0,0.0087890625,11.3203125,0)" xlink:href="#M"/><use transform="matrix(0.0087890625,0,0,0.0087890625,21.814453125,0)" xlink:href="#F"/><use transform="matrix(0.0087890625,0,0,0.0087890625,32.8359375,0)" xlink:href="#D"/><use transform="matrix(0.0087890625,0,0,0.0087890625,43.62890625,0)" xlink:href="#Q"/><use transform="matrix(0.0087890625,0,0,0.0087890625,53.1298828125,0)" xlink:href="#H"/><use transform="matrix(0.0087890625,0,0,0.0087890625,57.4892578125,0)" xlink:href="#C"/><use transform="matrix(0.0087890625,0,0,0.0087890625,63.2021484375,0)" xlink:href="#D"/><use transform="matrix(0.0087890625,0,0,0.0087890625,73.9951171875,0)" xlink:href="#E"/><use transform="matrix(0.0087890625,0,0,0.0087890625,81.052734375,0)" xlink:href="#R"/></g><path fill="#3a414a" d="M65 0l393-574-370-544h210c88 136 192 297 267 435 67-142 176-302 264-435h206L661-564 1053 0H844c-94-144-206-310-287-458C484-308 366-142 273 0H65" id="Z"/><g id="o"><use transform="matrix(0.0087890625,0,0,0.0087890625,0,0)" xlink:href="#K"/><use transform="matrix(0.0087890625,0,0,0.0087890625,11.548828125,0)" xlink:href="#B"/><use transform="matrix(0.0087890625,0,0,0.0087890625,22.0078125,0)" xlink:href="#I"/><use transform="matrix(0.0087890625,0,0,0.0087890625,32.115234375,0)" xlink:href="#L"/><use transform="matrix(0.0087890625,0,0,0.0087890625,42.75,0)" xlink:href="#L"/><use transform="matrix(0.0087890625,0,0,0.0087890625,53.384765625,0)" xlink:href="#M"/><use transform="matrix(0.0087890625,0,0,0.0087890625,63.87890625,0)" xlink:href="#E"/><use transform="matrix(0.0087890625,0,0,0.0087890625,69.5302734375,0)" xlink:href="#X"/><use transform="matrix(0.0087890625,0,0,0.0087890625,74.7158203125,0)" xlink:href="#L"/><use transform="matrix(0.0087890625,0,0,0.0087890625,85.3505859375,0)" xlink:href="#M"/><use transform="matrix(0.0087890625,0,0,0.0087890625,95.4404296875,0)" xlink:href="#Z"/><use transform="matrix(0.0087890625,0,0,0.0087890625,105.6181640625,0)" xlink:href="#C"/><use transform="matrix(0.0087890625,0,0,0.0087890625,111.5068359375,0)" xlink:href="#S"/><use transform="matrix(0.0087890625,0,0,0.0087890625,116.3408203125,0)" xlink:href="#L"/><use transform="matrix(0.0087890625,0,0,0.0087890625,126.9755859375,0)" xlink:href="#C"/><use transform="matrix(0.0087890625,0,0,0.0087890625,132.8642578125,0)" xlink:href="#V"/><use transform="matrix(0.0087890625,0,0,0.0087890625,139.4296875,0)" xlink:href="#Y"/></g><path fill="#3a414a" d="M180 0v-1490h270l367 940c28 72 75 218 110 339 35-117 81-264 110-339l362-940h271V0h-187c2-448-5-837 7-1287-157 497-311 829-483 1287H842C666-458 514-784 354-1284c12 438 5 843 7 1284H180" id="aa"/><path fill="#3a414a" d="M611 442c-248 0-391-105-460-228l146-94c47 65 117 165 314 165 178 0 307-82 307-266v-224h-17C863-141 792-18 576-18c-268 0-472-195-472-546 0-346 197-568 476-568 216 0 288 133 326 193h17v-179h175V29c0 289-215 413-487 413zm-5-620c203 0 314-146 314-390 0-237-108-403-314-403-213 0-319 180-319 403 0 230 109 390 319 390" id="ab"/><g id="p"><use transform="matrix(0.0087890625,0,0,0.0087890625,0,0)" xlink:href="#aa"/><use transform="matrix(0.0087890625,0,0,0.0087890625,16.259765625,0)" xlink:href="#M"/><use transform="matrix(0.0087890625,0,0,0.0087890625,26.75390625,0)" xlink:href="#L"/><use transform="matrix(0.0087890625,0,0,0.0087890625,37.388671875,0)" xlink:href="#Q"/><use transform="matrix(0.0087890625,0,0,0.0087890625,46.8896484375,0)" xlink:href="#I"/><use transform="matrix(0.0087890625,0,0,0.0087890625,56.9970703125,0)" xlink:href="#ab"/><use transform="matrix(0.0087890625,0,0,0.0087890625,68.0361328125,0)" xlink:href="#M"/><use transform="matrix(0.0087890625,0,0,0.0087890625,78.5302734375,0)" xlink:href="#W"/></g><path fill="#3a414a" d="M180 0v-1490h190v1322h690V0H180" id="ac"/><g id="q"><use transform="matrix(0.0087890625,0,0,0.0087890625,0,0)" xlink:href="#Q"/><use transform="matrix(0.0087890625,0,0,0.0087890625,9.5009765625,0)" xlink:href="#B"/><use transform="matrix(0.0087890625,0,0,0.0087890625,19.9599609375,0)" xlink:href="#I"/><use transform="matrix(0.0087890625,0,0,0.0087890625,30.0673828125,0)" xlink:href="#L"/><use transform="matrix(0.0087890625,0,0,0.0087890625,40.7021484375,0)" xlink:href="#L"/><use transform="matrix(0.0087890625,0,0,0.0087890625,51.3369140625,0)" xlink:href="#M"/><use transform="matrix(0.0087890625,0,0,0.0087890625,61.8310546875,0)" xlink:href="#E"/><use transform="matrix(0.0087890625,0,0,0.0087890625,67.482421875,0)" xlink:href="#X"/><use transform="matrix(0.0087890625,0,0,0.0087890625,72.66796875,0)" xlink:href="#L"/><use transform="matrix(0.0087890625,0,0,0.0087890625,83.302734375,0)" xlink:href="#M"/><use transform="matrix(0.0087890625,0,0,0.0087890625,93.392578125,0)" xlink:href="#Z"/><use transform="matrix(0.0087890625,0,0,0.0087890625,103.5703125,0)" xlink:href="#C"/><use transform="matrix(0.0087890625,0,0,0.0087890625,109.458984375,0)" xlink:href="#ac"/><use transform="matrix(0.0087890625,0,0,0.0087890625,119.63671875,0)" xlink:href="#H"/><use transform="matrix(0.0087890625,0,0,0.0087890625,123.99609375,0)" xlink:href="#L"/><use transform="matrix(0.0087890625,0,0,0.0087890625,134.630859375,0)" xlink:href="#M"/><use transform="matrix(0.0087890625,0,0,0.0087890625,145.125,0)" xlink:href="#V"/><use transform="matrix(0.0087890625,0,0,0.0087890625,151.6904296875,0)" xlink:href="#Y"/></g><g id="r"><use transform="matrix(0.0087890625,0,0,0.0087890625,0,0)" xlink:href="#D"/><use transform="matrix(0.0087890625,0,0,0.0087890625,10.79296875,0)" xlink:href="#F"/><use transform="matrix(0.0087890625,0,0,0.0087890625,21.814453125,0)" xlink:href="#B"/><use transform="matrix(0.0087890625,0,0,0.0087890625,32.2734375,0)" xlink:href="#I"/><use transform="matrix(0.0087890625,0,0,0.0087890625,42.380859375,0)" xlink:href="#D"/></g><g id="s"><use transform="matrix(0.0087890625,0,0,0.0087890625,0,0)" xlink:href="#L"/><use transform="matrix(0.0087890625,0,0,0.0087890625,10.634765625,0)" xlink:href="#D"/><use transform="matrix(0.0087890625,0,0,0.0087890625,21.427734375,0)" xlink:href="#W"/><use transform="matrix(0.0087890625,0,0,0.0087890625,37.1953125,0)" xlink:href="#M"/></g><path fill="#3a414a" d="M783 20c-382 0-661-292-661-764 0-473 279-766 661-766 302 0 548 182 601 489h-190c-42-204-217-313-411-313-268 0-476 208-476 590 0 381 209 588 476 588 195 0 369-110 411-313h190c-52 303-296 489-601 489" id="ad"/><path fill="#3a414a" d="M128 359l88-567h206L266 359H128" id="ae"/><g id="t"><use transform="matrix(0.0087890625,0,0,0.0087890625,0,0)" xlink:href="#ad"/><use transform="matrix(0.0087890625,0,0,0.0087890625,13.1484375,0)" xlink:href="#G"/><use transform="matrix(0.0087890625,0,0,0.0087890625,17.5078125,0)" xlink:href="#H"/><use transform="matrix(0.0087890625,0,0,0.0087890625,21.8671875,0)" xlink:href="#M"/><use transform="matrix(0.0087890625,0,0,0.0087890625,32.361328125,0)" xlink:href="#L"/><use transform="matrix(0.0087890625,0,0,0.0087890625,42.99609375,0)" xlink:href="#C"/><use transform="matrix(0.0087890625,0,0,0.0087890625,48.708984375,0)" xlink:href="#M"/><use transform="matrix(0.0087890625,0,0,0.0087890625,59.203125,0)" xlink:href="#V"/><use transform="matrix(0.0087890625,0,0,0.0087890625,65.7685546875,0)" xlink:href="#H"/><use transform="matrix(0.0087890625,0,0,0.0087890625,70.1279296875,0)" xlink:href="#O"/><use transform="matrix(0.0087890625,0,0,0.0087890625,81.1494140625,0)" xlink:href="#ae"/></g><path fill="#3a414a" d="M338-670V0H158v-1490h180v566c73-149 190-208 336-208 226 0 379 139 379 422V0H872v-695c0-172-96-275-252-275-161 0-282 109-282 300" id="af"/><g id="u"><use transform="matrix(0.0087890625,0,0,0.0087890625,0,0)" xlink:href="#L"/><use transform="matrix(0.0087890625,0,0,0.0087890625,10.634765625,0)" xlink:href="#D"/><use transform="matrix(0.0087890625,0,0,0.0087890625,21.427734375,0)" xlink:href="#W"/><use transform="matrix(0.0087890625,0,0,0.0087890625,37.1953125,0)" xlink:href="#M"/><use transform="matrix(0.0087890625,0,0,0.0087890625,47.689453125,0)" xlink:href="#ae"/><use transform="matrix(0.0087890625,0,0,0.0087890625,52.875,0)" xlink:href="#G"/><use transform="matrix(0.0087890625,0,0,0.0087890625,57.234375,0)" xlink:href="#I"/><use transform="matrix(0.0087890625,0,0,0.0087890625,67.341796875,0)" xlink:href="#L"/><use transform="matrix(0.0087890625,0,0,0.0087890625,77.9765625,0)" xlink:href="#B"/><use transform="matrix(0.0087890625,0,0,0.0087890625,88.259765625,0)" xlink:href="#af"/><use transform="matrix(0.0087890625,0,0,0.0087890625,98.9033203125,0)" xlink:href="#M"/><use transform="matrix(0.0087890625,0,0,0.0087890625,109.1953125,0)" xlink:href="#Y"/></g><g id="v"><use transform="matrix(0.0087890625,0,0,0.0087890625,0,0)" xlink:href="#F"/><use transform="matrix(0.0087890625,0,0,0.0087890625,11.021484375,0)" xlink:href="#M"/><use transform="matrix(0.0087890625,0,0,0.0087890625,21.515625,0)" xlink:href="#O"/><use transform="matrix(0.0087890625,0,0,0.0087890625,32.537109375,0)" xlink:href="#H"/><use transform="matrix(0.0087890625,0,0,0.0087890625,36.896484375,0)" xlink:href="#O"/><use transform="matrix(0.0087890625,0,0,0.0087890625,47.91796875,0)" xlink:href="#D"/></g><g id="w"><use transform="matrix(0.0087890625,0,0,0.0087890625,0,0)" xlink:href="#N"/><use transform="matrix(0.0087890625,0,0,0.0087890625,11.3994140625,0)" xlink:href="#M"/><use transform="matrix(0.0087890625,0,0,0.0087890625,21.8935546875,0)" xlink:href="#O"/><use transform="matrix(0.0087890625,0,0,0.0087890625,32.9150390625,0)" xlink:href="#H"/><use transform="matrix(0.0087890625,0,0,0.0087890625,37.2744140625,0)" xlink:href="#O"/><use transform="matrix(0.0087890625,0,0,0.0087890625,48.2958984375,0)" xlink:href="#D"/><path fill="#3a414a" d="M-.9 3.67H60V4.9H-.9z"/></g><g id="x"><use transform="matrix(0.0087890625,0,0,0.0087890625,0,0)" xlink:href="#Q"/><use transform="matrix(0.0087890625,0,0,0.0087890625,9.5009765625,0)" xlink:href="#I"/><use transform="matrix(0.0087890625,0,0,0.0087890625,19.6083984375,0)" xlink:href="#G"/><use transform="matrix(0.0087890625,0,0,0.0087890625,24.0556640625,0)" xlink:href="#J"/><use transform="matrix(0.0087890625,0,0,0.0087890625,34.083984375,0)" xlink:href="#I"/><use transform="matrix(0.0087890625,0,0,0.0087890625,44.19140625,0)" xlink:href="#E"/><use transform="matrix(0.0087890625,0,0,0.0087890625,51.2490234375,0)" xlink:href="#N"/><use transform="matrix(0.0087890625,0,0,0.0087890625,62.6484375,0)" xlink:href="#M"/><use transform="matrix(0.0087890625,0,0,0.0087890625,73.142578125,0)" xlink:href="#O"/><use transform="matrix(0.0087890625,0,0,0.0087890625,84.1640625,0)" xlink:href="#H"/><use transform="matrix(0.0087890625,0,0,0.0087890625,88.5234375,0)" xlink:href="#O"/><use transform="matrix(0.0087890625,0,0,0.0087890625,99.544921875,0)" xlink:href="#D"/><use transform="matrix(0.0087890625,0,0,0.0087890625,110.337890625,0)" xlink:href="#V"/><use transform="matrix(0.0087890625,0,0,0.0087890625,116.9033203125,0)" xlink:href="#F"/><use transform="matrix(0.0087890625,0,0,0.0087890625,127.9248046875,0)" xlink:href="#M"/><use transform="matrix(0.0087890625,0,0,0.0087890625,138.4189453125,0)" xlink:href="#O"/><use transform="matrix(0.0087890625,0,0,0.0087890625,149.4404296875,0)" xlink:href="#H"/><use transform="matrix(0.0087890625,0,0,0.0087890625,153.7998046875,0)" xlink:href="#O"/><use transform="matrix(0.0087890625,0,0,0.0087890625,164.8212890625,0)" xlink:href="#D"/><use transform="matrix(0.0087890625,0,0,0.0087890625,175.412109375,0)" xlink:href="#Y"/></g><g id="y"><use transform="matrix(0.0087890625,0,0,0.0087890625,0,0)" xlink:href="#N"/><use transform="matrix(0.0087890625,0,0,0.0087890625,11.3994140625,0)" xlink:href="#M"/><use transform="matrix(0.0087890625,0,0,0.0087890625,21.8935546875,0)" xlink:href="#O"/><use transform="matrix(0.0087890625,0,0,0.0087890625,32.9150390625,0)" xlink:href="#H"/><use transform="matrix(0.0087890625,0,0,0.0087890625,37.2744140625,0)" xlink:href="#O"/><use transform="matrix(0.0087890625,0,0,0.0087890625,48.2958984375,0)" xlink:href="#D"/></g><g id="z"><use transform="matrix(0.0087890625,0,0,0.0087890625,0,0)" xlink:href="#B"/><use transform="matrix(0.0087890625,0,0,0.0087890625,10.283203125,0)" xlink:href="#E"/><use transform="matrix(0.0087890625,0,0,0.0087890625,17.3408203125,0)" xlink:href="#H"/><use transform="matrix(0.0087890625,0,0,0.0087890625,21.7001953125,0)" xlink:href="#I"/><use transform="matrix(0.0087890625,0,0,0.0087890625,31.8076171875,0)" xlink:href="#O"/><use transform="matrix(0.0087890625,0,0,0.0087890625,42.8291015625,0)" xlink:href="#D"/></g></defs></g></svg>